<?xml version="1.0" encoding="UTF-8" standalone="no"?>
<!-- Generator: Adobe Illustrator 18.1.1, SVG Export Plug-In . SVG Version: 6.00 Build 0)  -->

<svg
   xmlns:dc="http://purl.org/dc/elements/1.1/"
   xmlns:cc="http://creativecommons.org/ns#"
   xmlns:rdf="http://www.w3.org/1999/02/22-rdf-syntax-ns#"
   xmlns:svg="http://www.w3.org/2000/svg"
   xmlns="http://www.w3.org/2000/svg"
   xmlns:sodipodi="http://sodipodi.sourceforge.net/DTD/sodipodi-0.dtd"
   xmlns:inkscape="http://www.inkscape.org/namespaces/inkscape"
   version="1.1"
   id="Capa_1"
   x="0px"
   y="0px"
   viewBox="0 0 5.94 5.94"
   xml:space="preserve"
   width="60"
   height="60"
   inkscape:version="0.91 r13725"
   sodipodi:docname="bubbles_logo.svg"><metadata
     id="metadata53"><rdf:RDF><cc:Work
         rdf:about=""><dc:format>image/svg+xml</dc:format><dc:type
           rdf:resource="http://purl.org/dc/dcmitype/StillImage" /><dc:title></dc:title></cc:Work></rdf:RDF></metadata><defs
     id="defs51" /><sodipodi:namedview
     pagecolor="#ffffff"
     bordercolor="#666666"
     borderopacity="1"
     objecttolerance="10"
     gridtolerance="10"
     guidetolerance="10"
     inkscape:pageopacity="0"
     inkscape:pageshadow="2"
     inkscape:window-width="1280"
     inkscape:window-height="771"
     id="namedview49"
     showgrid="false"
     inkscape:zoom="5.2149125"
     inkscape:cx="26.988012"
     inkscape:cy="38.184548"
     inkscape:window-x="0"
     inkscape:window-y="0"
     inkscape:window-maximized="1"
     inkscape:current-layer="Capa_1"
     showborder="false" /><g
     id="g3"
     transform="matrix(0.12277547,0,0,0.1171875,-0.14168289,-1.8474601e-8)"
     style="fill:#ffffff"><g
       id="g5"
       style="fill:#ffffff"><path
         d="m 28.125,28.003 c 3.906,0 7.084,-3.179 7.084,-7.085 0,-3.339 -2.32,-6.181 -5.506,-6.905 C 28.569,7.209 22.657,2 15.535,2 7.604,2 1.154,8.451 1.154,16.381 c 0,7.93 6.451,14.382 14.381,14.382 3.598,0 6.883,-1.338 9.408,-3.529 0.984,0.496 2.067,0.769 3.182,0.769 z m 5.084,-7.085 c 0,2.804 -2.28,5.085 -5.084,5.085 -0.574,0 -1.134,-0.106 -1.668,-0.292 2.15,-2.515 3.458,-5.77 3.458,-9.33 0,-0.071 -0.01,-0.14 -0.011,-0.21 1.943,0.727 3.305,2.585 3.305,4.747 z M 3.154,16.381 C 3.154,9.554 8.708,4 15.535,4 c 6.827,0 12.381,5.554 12.381,12.381 0,6.827 -5.554,12.382 -12.381,12.382 -6.827,0 -12.381,-5.555 -12.381,-12.382 z"
         id="path7"
         inkscape:connector-curvature="0"
         style="fill:#ffffff" /><path
         d="m 45.035,0 c -2.481,0 -4.5,2.019 -4.5,4.5 0,2.481 2.019,4.5 4.5,4.5 2.481,0 4.5,-2.019 4.5,-4.5 0,-2.481 -2.02,-4.5 -4.5,-4.5 z m 0,7 c -1.379,0 -2.5,-1.122 -2.5,-2.5 0,-1.378 1.121,-2.5 2.5,-2.5 1.379,0 2.5,1.122 2.5,2.5 0,1.378 -1.121,2.5 -2.5,2.5 z"
         id="path9"
         inkscape:connector-curvature="0"
         style="fill:#ffffff" /><path
         d="m 37.201,32.117 c -5.12,0 -9.286,4.166 -9.286,9.286 0,5.12 4.166,9.285 9.286,9.285 5.12,0 9.286,-4.165 9.286,-9.285 0,-5.12 -4.165,-9.286 -9.286,-9.286 z m 0,16.571 c -4.018,0 -7.286,-3.269 -7.286,-7.285 0,-4.018 3.269,-7.286 7.286,-7.286 4.017,0 7.286,3.269 7.286,7.286 0,4.017 -3.267,7.285 -7.286,7.285 z"
         id="path11"
         inkscape:connector-curvature="0"
         style="fill:#ffffff" /><path
         d="m 8.003,7.989 c -2.917,1.768 -3.544,5.769 -3.57,5.938 -0.041,0.273 0.147,0.527 0.42,0.568 0.025,0.004 0.05,0.006 0.075,0.006 0.243,0 0.457,-0.178 0.494,-0.426 C 5.427,14.038 6.009,10.366 8.521,8.845 8.758,8.702 8.834,8.394 8.69,8.158 8.547,7.922 8.24,7.848 8.003,7.989 Z"
         id="path13"
         inkscape:connector-curvature="0"
         style="fill:#ffffff" /><path
         d="m 33.822,36.339 c -2.241,1.051 -2.526,4.868 -2.537,5.03 -0.019,0.275 0.189,0.514 0.465,0.533 0.012,0 0.023,10e-4 0.035,10e-4 0.26,0 0.479,-0.202 0.498,-0.466 0.065,-0.94 0.546,-3.528 1.963,-4.192 0.25,-0.117 0.358,-0.415 0.241,-0.665 -0.118,-0.251 -0.417,-0.358 -0.665,-0.241 z"
         id="path15"
         inkscape:connector-curvature="0"
         style="fill:#ffffff" /><path
         d="m 44.811,2.51 c -1.233,0.246 -1.605,2.028 -1.644,2.23 -0.052,0.271 0.127,0.533 0.398,0.584 0.031,0.006 0.062,0.009 0.094,0.009 0.235,0 0.445,-0.167 0.49,-0.407 C 44.227,4.514 44.551,3.581 45.005,3.49 45.276,3.436 45.451,3.173 45.398,2.902 45.346,2.63 45.076,2.456 44.811,2.51 Z"
         id="path17"
         inkscape:connector-curvature="0"
         style="fill:#ffffff" /></g></g><g
     id="g19"
     transform="translate(0,-44.747999)" /><g
     id="g21"
     transform="translate(0,-44.747999)" /><g
     id="g23"
     transform="translate(0,-44.747999)" /><g
     id="g25"
     transform="translate(0,-44.747999)" /><g
     id="g27"
     transform="translate(0,-44.747999)" /><g
     id="g29"
     transform="translate(0,-44.747999)" /><g
     id="g31"
     transform="translate(0,-44.747999)" /><g
     id="g33"
     transform="translate(0,-44.747999)" /><g
     id="g35"
     transform="translate(0,-44.747999)" /><g
     id="g37"
     transform="translate(0,-44.747999)" /><g
     id="g39"
     transform="translate(0,-44.747999)" /><g
     id="g41"
     transform="translate(0,-44.747999)" /><g
     id="g43"
     transform="translate(0,-44.747999)" /><g
     id="g45"
     transform="translate(0,-44.747999)" /><g
     id="g47"
     transform="translate(0,-44.747999)" /></svg>